<?xml version="1.0" encoding="utf-8"?>
<!-- Generator: Adobe Illustrator 16.0.0, SVG Export Plug-In . SVG Version: 6.00 Build 0)  -->
<!DOCTYPE svg PUBLIC "-//W3C//DTD SVG 1.1//EN" "http://www.w3.org/Graphics/SVG/1.1/DTD/svg11.dtd">
<svg version="1.1" id="Capa_1" xmlns="http://www.w3.org/2000/svg" xmlns:xlink="http://www.w3.org/1999/xlink" x="0px" y="0px"
	 width="411.77px" height="530.5px" viewBox="-35.23 -18.5 411.77 530.5" enable-background="new -35.23 -18.5 411.77 530.5"
	 xml:space="preserve">
<g>
	<g>
		<g>
			<path fill="#FFFFFF" d="M307.542,185.4c-25.82-6.649-45.762-19.146-59.268-37.145c-10.225-13.624-16.441-29.964-18.482-48.567
				c-0.189-1.73-1.195-3.265-2.705-4.128c-1.51-0.865-3.342-0.953-4.928-0.243c-18.326,8.223-45.32,18.026-69.873,18.027
				c-9.839,0-18.578-1.595-25.975-4.74c-10.701-4.555-18.859-12.227-24.249-22.81c-1.153-2.267-3.726-3.434-6.19-2.803
				c-55.167,14.055-76.274,67.815-83.946,98.61c-0.424,1.701-0.002,3.503,1.134,4.838l74.314,87.441
				c1.036,1.22,2.553,1.917,4.146,1.917c0.073,0,0.147-0.001,0.221-0.005c1.672-0.067,3.22-0.901,4.197-2.261
				c20.593-28.655,42.201-41.434,70.063-41.434c27.862,0,49.471,12.778,70.063,41.434c0.984,1.371,2.553,2.207,4.24,2.263
				c1.727,0.069,3.307-0.674,4.375-1.978l65.707-79.687c1.186-1.435,1.553-3.376,0.977-5.145
				C310.784,187.215,309.344,185.864,307.542,185.4z"/>
			<path fill="#FFFFFF" d="M325.495,335.377c-5.42-3.367-11.221-5.828-17.301-7.354c4.33-12.207,8.104-24.055,10.566-33.215
				c0.018-0.049,0.027-0.099,0.037-0.148c1.936-8.098,5.688-13.577,10.566-15.43c1.59-0.604,2.805-1.916,3.287-3.545l19.48-65.936
				c0.453-1.535,0.207-3.192-0.67-4.528c-0.879-1.337-2.301-2.221-3.887-2.415l-21.102-2.572c-1.842-0.22-3.676,0.507-4.855,1.939
				l-71.436,86.635c-1.438,1.744-1.65,4.192-0.527,6.154c5.873,10.307,12.027,22.389,19.297,37.903
				c-0.529,1.68-0.934,2.832-0.938,2.846c-7.707,21.483-15.945,39.933-23.189,51.901c-0.014,0.018-0.023,0.034-0.031,0.051
				c-0.01,0.016-0.02,0.026-0.023,0.038c-14.859,24.757-44.979,49.736-78.77,49.742c-33.793-0.006-63.912-24.985-78.772-49.742
				c-0.006-0.012-0.015-0.022-0.023-0.038c-0.011-0.017-0.021-0.033-0.031-0.051c-7.245-11.971-15.485-30.418-23.193-51.901
				c-0.004-0.015-0.406-1.166-0.937-2.846c7.271-15.515,13.424-27.597,19.298-37.903c1.12-1.964,0.91-4.415-0.529-6.154
				l-71.437-86.635c-1.182-1.432-3.014-2.159-4.856-1.939l-21.098,2.573c-1.588,0.194-3.01,1.077-3.889,2.415
				c-0.878,1.337-1.122,2.994-0.669,4.528l19.483,65.937c0.48,1.629,1.697,2.939,3.287,3.545c4.879,1.852,8.631,7.33,10.565,15.43
				c0.011,0.049,0.023,0.1,0.038,0.148c2.464,9.162,6.237,21.01,10.567,33.213c-6.083,1.523-11.881,3.988-17.302,7.354
				c-28.543,17.727-37.346,55.372-19.619,83.916l33.479,53.91C31.563,491.234,50.935,502,72.187,502
				c11.33,0,22.429-3.173,32.095-9.178c10.704-6.646,19.049-16.437,23.934-27.952c12.473,4.619,25.152,6.96,37.775,6.962l0,0
				c0.004,0,0.008,0,0.012,0c0.002,0,0.008,0,0.012,0l0,0c12.624-0.003,25.305-2.343,37.773-6.962
				c4.885,11.515,13.229,21.304,23.934,27.952c9.666,6.005,20.766,9.178,32.096,9.178c21.25,0,40.623-10.766,51.822-28.796
				l33.479-53.91C362.842,390.747,354.038,353.104,325.495,335.377z M87.631,466.014c-4.665,2.896-10.006,4.429-15.447,4.429
				c-10.264,0-19.612-5.191-25.013-13.89l-33.479-53.908c-4.134-6.653-5.423-14.531-3.634-22.186
				c1.79-7.652,6.44-14.143,13.094-18.277c3.721-2.31,7.872-3.75,12.162-4.238c0.945,2.269,1.896,4.498,2.837,6.662
				c6.58,16.461,13.177,30.19,19.594,40.8c10.442,17.391,25.364,33.166,42.291,44.771C97.908,456.77,93.593,462.311,87.631,466.014z
				 M318.305,402.645l-33.479,53.908c-5.4,8.697-14.752,13.89-25.014,13.89c-5.441,0-10.781-1.531-15.447-4.429
				c-5.961-3.701-10.273-9.242-12.4-15.837c16.926-11.605,31.85-27.379,42.289-44.771c6.416-10.606,13.014-24.339,19.594-40.8
				c0.941-2.164,1.893-4.395,2.836-6.662c4.289,0.488,8.439,1.93,12.162,4.238c6.654,4.135,11.307,10.627,13.096,18.277
				C323.729,388.112,322.438,395.99,318.305,402.645z"/>
			<path fill="#FFFFFF" d="M6.359,86.142l2.354,36.54c0.16,2.478,1.948,4.548,4.377,5.063c2.427,0.515,4.904-0.645,6.059-2.844
				c20.582-39.223,52.902-62.58,93.469-67.546c0,0,6.202-0.839,8.293,1.183c1.746,1.687,2.975,6.641,2.975,6.641
				c2.455,10.251,7.504,16.874,15.425,20.244c4.589,1.952,10.132,2.941,16.474,2.941c27.82,0,67.563-20.351,78.705-26.3
				c9.928-5.302,18.01-3.431,15.324,10.861c-0.568,3.01-5.389,32.241,13.301,56.878c11.008,14.51,28.412,24.175,51.732,28.725
				c1.68,0.219,3.469-0.296,4.445-1.05c1.26-0.974,2.043-2.442,2.146-4.032l4.375-67.92c0,0,2.813-28.072-15.447-51.49
				C287.286,4.441,236.415-10,166.067-10C95.72-10,45.281,4.785,21.77,34.035C2.833,57.59,6.199,81.038,6.359,86.142z"/>
		</g>
	</g>
</g>
</svg>
