<?xml version="1.0" encoding="utf-8"?>
<!-- Generator: Adobe Illustrator 16.0.0, SVG Export Plug-In . SVG Version: 6.00 Build 0)  -->
<!DOCTYPE svg PUBLIC "-//W3C//DTD SVG 1.1//EN" "http://www.w3.org/Graphics/SVG/1.1/DTD/svg11.dtd">
<svg version="1.1" id="Capa_1" xmlns="http://www.w3.org/2000/svg" xmlns:xlink="http://www.w3.org/1999/xlink" x="0px" y="0px"
	 width="376.54px" height="512px" viewBox="67.73 0 376.54 512" enable-background="new 67.73 0 376.54 512" xml:space="preserve">
<g>
	<g>
		<g>
			<path d="M397.542,195.4c-25.821-6.649-45.762-19.146-59.268-37.145c-10.225-13.624-16.441-29.964-18.482-48.567
				c-0.189-1.73-1.196-3.265-2.706-4.128c-1.51-0.865-3.342-0.953-4.928-0.243c-18.325,8.223-45.32,18.026-69.872,18.027
				c-9.839,0-18.579-1.595-25.975-4.74c-10.701-4.555-18.86-12.227-24.249-22.81c-1.154-2.267-3.726-3.434-6.19-2.803
				c-55.167,14.055-76.274,67.815-83.946,98.61c-0.424,1.701-0.002,3.503,1.134,4.838l74.314,87.441
				c1.036,1.219,2.553,1.917,4.146,1.917c0.073,0,0.147-0.001,0.221-0.005c1.672-0.068,3.22-0.901,4.197-2.261
				c20.593-28.655,42.201-41.434,70.063-41.434c27.862,0,49.47,12.778,70.062,41.434c0.985,1.372,2.553,2.207,4.24,2.263
				c1.727,0.069,3.306-0.674,4.376-1.977l65.706-79.687c1.186-1.435,1.553-3.376,0.977-5.145
				C400.783,197.215,399.344,195.864,397.542,195.4z"/>
			<path d="M415.495,345.377c-5.421-3.367-11.221-5.828-17.302-7.354c4.33-12.207,8.104-24.054,10.567-33.214
				c0.017-0.049,0.027-0.099,0.038-0.149c1.934-8.098,5.686-13.577,10.565-15.43c1.59-0.604,2.805-1.916,3.287-3.545l19.481-65.935
				c0.453-1.535,0.208-3.192-0.669-4.528c-0.88-1.337-2.301-2.221-3.888-2.415l-21.101-2.572c-1.841-0.22-3.675,0.507-4.856,1.939
				l-71.434,86.634c-1.438,1.744-1.651,4.193-0.529,6.155c5.874,10.307,12.028,22.389,19.298,37.903
				c-0.53,1.68-0.933,2.832-0.937,2.846c-7.707,21.483-15.946,39.932-23.191,51.901c-0.012,0.018-0.023,0.034-0.031,0.051
				c-0.009,0.016-0.019,0.026-0.023,0.038c-14.859,24.757-44.979,49.736-78.769,49.742c-33.794-0.006-63.912-24.985-78.773-49.742
				c-0.006-0.012-0.015-0.022-0.023-0.038c-0.011-0.017-0.021-0.033-0.031-0.051c-7.245-11.97-15.485-30.418-23.193-51.901
				c-0.004-0.015-0.406-1.166-0.937-2.846c7.271-15.515,13.424-27.597,19.298-37.903c1.12-1.964,0.91-4.415-0.529-6.155
				l-71.437-86.634c-1.182-1.432-3.014-2.159-4.856-1.939l-21.098,2.573c-1.588,0.194-3.01,1.077-3.889,2.415
				c-0.878,1.337-1.122,2.994-0.669,4.528l19.483,65.936c0.48,1.629,1.697,2.94,3.287,3.545c4.879,1.852,8.631,7.33,10.565,15.43
				c0.011,0.049,0.023,0.099,0.038,0.149c2.464,9.161,6.237,21.009,10.567,33.212c-6.083,1.524-11.881,3.988-17.302,7.354
				c-28.543,17.727-37.346,55.372-19.619,83.916l33.479,53.91C121.563,501.234,140.935,512,162.187,512
				c11.33,0,22.429-3.173,32.095-9.178c10.704-6.646,19.048-16.436,23.934-27.952c12.472,4.619,25.151,6.96,37.774,6.962l0,0
				c0.004,0,0.009,0,0.013,0c0.002,0,0.007,0,0.011,0l0,0c12.624-0.003,25.305-2.343,37.774-6.962
				c4.885,11.515,13.229,21.304,23.933,27.952c9.667,6.005,20.765,9.178,32.095,9.178c21.251,0,40.624-10.766,51.823-28.796
				l33.479-53.91C452.842,400.747,444.038,363.104,415.495,345.377z M177.631,476.014c-4.665,2.896-10.006,4.428-15.447,4.428
				c-10.264,0-19.612-5.191-25.013-13.889l-33.479-53.908c-4.134-6.654-5.423-14.532-3.634-22.186
				c1.79-7.652,6.44-14.143,13.094-18.277c3.721-2.31,7.872-3.75,12.162-4.238c0.945,2.268,1.896,4.497,2.837,6.662
				c6.58,16.46,13.177,30.19,19.594,40.799c10.442,17.391,25.364,33.166,42.29,44.771
				C187.908,466.77,183.593,472.311,177.631,476.014z M408.305,412.645l-33.479,53.908c-5.4,8.697-14.751,13.889-25.013,13.889
				c-5.441,0-10.781-1.531-15.447-4.428c-5.962-3.701-10.274-9.242-12.401-15.837c16.927-11.606,31.849-27.379,42.29-44.772
				c6.416-10.606,13.014-24.339,19.594-40.799c0.94-2.165,1.891-4.395,2.836-6.662c4.288,0.488,8.439,1.929,12.162,4.238
				c6.653,4.135,11.306,10.626,13.094,18.277C413.729,398.112,412.438,405.99,408.305,412.645z"/>
			<path d="M96.359,96.142l2.354,36.54c0.16,2.478,1.948,4.548,4.377,5.063c2.427,0.515,4.904-0.645,6.059-2.844
				c20.582-39.223,52.902-62.58,93.468-67.546c0,0,6.203-0.839,8.294,1.183c1.745,1.687,2.974,6.641,2.974,6.641
				c2.456,10.251,7.504,16.874,15.425,20.244c4.589,1.952,10.132,2.941,16.473,2.941c27.821,0,67.563-20.351,78.705-26.3
				c9.928-5.302,18.011-3.431,15.324,10.861c-0.567,3.01-5.388,32.241,13.302,56.878c11.008,14.51,28.412,24.175,51.732,28.725
				c1.679,0.219,3.468-0.296,4.445-1.05c1.261-0.974,2.044-2.442,2.146-4.032l4.376-67.92c0,0,2.812-28.072-15.448-51.49
				C377.286,14.441,326.414,0,256.067,0C185.72,0,135.281,14.785,111.77,44.035C92.833,67.59,96.199,91.038,96.359,96.142z"/>
		</g>
	</g>
</g>
</svg>
