<?xml version="1.0" encoding="utf-8"?>
<!-- Generator: Adobe Illustrator 16.0.0, SVG Export Plug-In . SVG Version: 6.00 Build 0)  -->
<!DOCTYPE svg PUBLIC "-//W3C//DTD SVG 1.1//EN" "http://www.w3.org/Graphics/SVG/1.1/DTD/svg11.dtd">
<svg version="1.1" id="Capa_1" xmlns="http://www.w3.org/2000/svg" xmlns:xlink="http://www.w3.org/1999/xlink" x="0px" y="0px"
	 width="512px" height="512px" viewBox="0 0 512 512" enable-background="new 0 0 512 512" xml:space="preserve">
<g>
	<g>
		<g id="circle_10_">
			<g>
				<path d="M267.8,293.216c-6.248,6.248-16.368,6.248-22.624,0l-12.64-12.64L183.88,328h144.815l-48.64-47.032L267.8,293.216z
					 M353.648,184h-194.52L256,280L353.648,184z M144,192.048V328h16.487l60.225-59.239L144,192.048z M352.488,328H368V193.024
					l-75.744,75.736L352.488,328z M256,0C114.616,0,0,114.616,0,256c0,141.385,114.616,256,256,256s256-114.615,256-256
					C512,114.616,397.384,0,256,0z M384,328c0,8.832-7.168,16-16,16H144c-8.832,0-16-7.168-16-16V184c0-8.832,7.168-16,16-16h224
					c8.832,0,16,7.168,16,16V328z"/>
			</g>
		</g>
	</g>
</g>
</svg>
