<?xml version="1.0" encoding="utf-8"?>
<!-- Generator: Adobe Illustrator 16.0.0, SVG Export Plug-In . SVG Version: 6.00 Build 0)  -->
<!DOCTYPE svg PUBLIC "-//W3C//DTD SVG 1.1//EN" "http://www.w3.org/Graphics/SVG/1.1/DTD/svg11.dtd">
<svg version="1.1" id="Layer_1" xmlns="http://www.w3.org/2000/svg" xmlns:xlink="http://www.w3.org/1999/xlink" x="0px" y="0px"
	 width="512px" height="512px" viewBox="0 0 512 512" enable-background="new 0 0 512 512" xml:space="preserve">
<g>
	<g>
		<g>
			<circle cx="256.002" cy="385.852" r="19.999"/>
			<path d="M311.792,116.476H200.207c-6.255,0-11.344,4.853-11.344,10.806v210.93c0,5.958,5.086,10.806,11.344,10.806h111.585
				c6.255,0,11.345-4.853,11.345-10.806v-210.93C323.133,121.324,318.047,116.476,311.792,116.476z"/>
			<path d="M255.993,0C114.615,0,0.001,114.622,0.001,255.995C0.001,397.369,114.615,512,255.993,512
				c141.378,0,256.005-114.624,256.005-256.005C511.998,114.615,397.371,0,255.993,0z M355.591,382.33
				c0,19.555-15.855,35.411-35.412,35.411H191.814c-19.555,0-35.411-15.854-35.411-35.411V128.552
				c0-19.556,15.854-35.412,35.411-35.412h128.365c19.556,0,35.412,15.855,35.412,35.412V382.33z"/>
		</g>
	</g>
</g>
</svg>
